<?xml version="1.0" encoding="utf-8"?>
<!-- Generator: Adobe Illustrator 26.0.1, SVG Export Plug-In . SVG Version: 6.00 Build 0)  -->
<svg version="1.1" id="Layer_1" xmlns="http://www.w3.org/2000/svg" xmlns:xlink="http://www.w3.org/1999/xlink" x="0px" y="0px"
	 viewBox="0 0 136.9 137.3" style="enable-background:new 0 0 136.9 137.3;" xml:space="preserve">
<style type="text/css">
	.st0{fill:#BEA03B;}
	.st1{fill:#0061AF;}
</style>
<polygon class="st0" points="74.4,10.1 81.6,1.3 85,12.2 93.8,4.8 95.1,16.2 105.1,10.6 104.3,22 115.1,18.3 112.3,29.4 123.6,27.8 
	118.8,38.1 130.2,38.6 123.5,47.9 134.6,50.5 126.4,58.4 136.9,62.9 127.3,69.2 136.8,75.6 126.2,80 134.3,88 123.1,90.4 
	129.6,99.8 118.2,100.1 122.9,110.5 111.6,108.7 114.2,119.8 103.5,115.9 104.1,127.4 94.2,121.6 92.7,132.9 84,125.4 80.5,136.3 
	73.3,127.3 67.8,137.3 62.5,127.2 55.2,136.1 51.8,125.1 43.1,132.5 41.7,121.1 31.8,126.7 32.5,115.3 21.7,119 24.6,107.9 
	13.3,109.6 18.1,99.2 6.7,98.7 13.4,89.4 2.2,86.9 10.5,79 0,74.4 9.6,68.2 0.1,61.7 10.7,57.3 2.5,49.3 13.7,46.9 7.2,37.5 
	18.7,37.2 14,26.8 25.3,28.6 22.6,17.5 33.4,21.4 32.8,10 42.7,15.8 44.2,4.4 52.8,11.9 56.4,1.1 63.5,10 69,0 "/>
<path class="st1" d="M53.2,43.2c0,0.2,0.1,0.5,0.1,0.7c0,0.5,0.1,0.9,0.1,1.2v0.3h-0.6c-0.1-0.5-0.3-0.9-0.5-1.3
	c-0.3-0.4-0.7-0.6-1.1-0.6c-0.7-0.1-1.3,0.4-1.4,1.1v0.1c0,0.3,0.1,0.6,0.4,0.9c0.4,0.4,0.9,0.7,1.5,0.8c0.3,0.1,0.6,0.2,0.9,0.4
	c0.3,0.2,0.6,0.4,0.8,0.6c0.2,0.3,0.4,0.5,0.5,0.9c0.1,0.3,0.1,0.7,0.1,1c0,0.4-0.1,0.9-0.2,1.3c-0.1,0.2-0.2,0.5-0.4,0.7
	s-0.4,0.3-0.6,0.5c-0.2,0.2-0.5,0.3-0.8,0.4c-0.4,0.1-0.7,0.1-1.1,0.1c-0.3,0-0.7-0.1-1-0.2L49.2,52c-0.1,0-0.3-0.1-0.4-0.2
	l-0.1-0.1v-2h0.6c0.2,0.5,0.3,0.9,0.4,1c0.1,0.2,0.3,0.4,0.4,0.6c0.2,0.2,0.4,0.3,0.6,0.4c0.2,0.1,0.5,0.1,0.7,0.1
	c0.3,0,0.5-0.1,0.7-0.2c0.3-0.1,0.5-0.3,0.7-0.5s0.2-0.5,0.2-0.8c0-0.4-0.2-0.7-0.4-1c-0.4-0.3-0.9-0.6-1.4-0.8
	c-0.6-0.2-1.1-0.5-1.6-0.8c-0.3-0.3-0.6-0.6-0.7-1c-0.2-0.4-0.3-0.8-0.3-1.2c0-0.7,0.2-1.4,0.7-1.9c0.6-0.6,1.3-0.9,2.1-0.8
	c0.3,0,0.6,0,0.9,0.1C52.6,43,52.9,43.1,53.2,43.2z"/>
<path class="st1" d="M55,52.3v-0.5l0.4-0.1c0.2-0.1,0.4-0.1,0.6-0.2c0.1-0.2,0.1-0.4,0.1-0.6V48c0-0.9,0.1-1.4,0.1-1.5V44
	c0-0.1,0-0.2,0-0.2c-0.3-0.1-0.5-0.2-0.8-0.2h-0.2V43l1.8,0.1h0.4c0.2,0,0.7,0,1.2,0h0.6v0.5l-0.6,0.2c-0.2,0-0.4,0.1-0.5,0.2
	c0,0.2,0,0.4,0,0.5v7c0,0.1,0,0.1,0,0.2c0.2,0,0.5,0.1,0.7,0.1l0.4,0.1L59,52v0.2h-0.6l-0.8-0.1h-1.1c-0.3,0-0.7,0-1,0.1L55,52.3z"
	/>
<path class="st1" d="M59.6,43.6v-0.5h2.8c0.7,0.7,1.2,1.2,1.6,1.7s1.9,2.2,4.4,5.1v-4.2c0-0.4,0-0.7-0.1-1.1c0-0.2,0-0.4-0.1-0.6
	c-0.2-0.1-0.4-0.2-0.6-0.2s-0.4-0.1-0.5-0.2v-0.4h1.4l1.2-0.1H70v0.5c-0.1,0.1-0.2,0.1-0.3,0.1c-0.2,0-0.3,0.1-0.5,0.2
	c-0.1,0.1-0.2,0.2-0.3,0.2c0,0.1-0.1,0.2-0.1,0.3v3l0.2,2.5v2.7h-0.7l-0.8-0.9L66,49.9l-1-1.2l-0.8-0.9c-0.5-0.6-1-1.1-1.4-1.5
	l-1-1.1l0.1,2.7v2c0,0.4,0,0.9,0.1,1.3v0.3c0,0.1,0,0.1,0.1,0.2c0.3,0.1,0.7,0.2,1.1,0.2h0.2v0.6H63c-0.4,0-0.8,0-1.3-0.1
	c-0.4-0.1-0.9-0.1-1.3,0h-0.6v-0.5h0.5c0.2,0,0.4,0,0.6-0.1c0.1-0.1,0.1-0.2,0.1-0.5v-5.5c0-0.4,0-0.8-0.1-1.2
	c0-0.1-0.1-0.2-0.2-0.3c-0.1-0.2-0.3-0.3-0.5-0.4C60.1,43.7,59.9,43.6,59.6,43.6z"/>
<path class="st1" d="M78.1,43.1c0.1,0.1,0.2,0.5,0.3,1.2c0.1,0.3,0.1,0.7,0.1,1H78c-0.3-0.5-0.7-1-1.2-1.4c-0.4-0.3-0.9-0.4-1.4-0.4
	c-0.6,0-1.2,0.3-1.6,0.9c-0.6,1-0.8,2.1-0.8,3.2c0,0.6,0,1.2,0.1,1.7s0.3,0.9,0.6,1.4c0.2,0.3,0.4,0.5,0.7,0.6
	c0.4,0.2,0.8,0.3,1.2,0.3c0.5,0,1-0.2,1.3-0.5c0.5-0.4,0.9-0.9,1.2-1.5c0.2,0,0.4-0.1,0.6,0c0,0.2,0,0.4-0.1,0.6
	c0,0.1-0.1,0.4-0.2,0.9v0.2l-0.1,0.3c-0.3,0.2-0.7,0.4-1.1,0.5c-0.6,0.1-1.1,0.2-1.7,0.2c-0.5,0-1-0.1-1.5-0.2
	c-0.4-0.1-0.8-0.3-1.2-0.5c-0.4-0.3-0.8-0.7-1.1-1.1c-0.3-0.4-0.5-0.9-0.6-1.3c-0.1-0.5-0.2-1.1-0.2-1.6c0-1.3,0.4-2.6,1.2-3.5
	c0.8-0.9,1.9-1.4,3.2-1.4c0.5,0,1,0,1.5,0.1C77.3,42.9,77.7,43,78.1,43.1z"/>
<path class="st1" d="M79.3,43c0.2,0,0.4,0,0.6,0.1c0.4,0,0.8,0.1,1.1,0.1h1.2c0.9,0,1.8-0.1,2.5-0.1L86,43c0.4,0,0.8,0,1.1,0.1
	c0.1,0.1,0.1,0.3,0.1,0.4v1.9h-0.5c0-0.1-0.1-0.2-0.2-0.4l-0.2-0.5c-0.1-0.2-0.2-0.5-0.4-0.7c-0.1,0-0.3-0.1-0.4-0.1h-0.4
	c-0.4,0-0.8-0.1-1.2-0.1h-1.4v3.5h0.3c0.5,0,1.1,0,1.6,0c0.2,0,0.4-0.1,0.6-0.2c0.1-0.1,0.2-0.2,0.2-0.3s0.1-0.5,0.2-1.1h0.4v3.8
	h-0.4c0-0.2,0-0.3-0.1-0.5c0-0.3-0.1-0.6-0.2-0.8c-0.1,0-0.1-0.1-0.3-0.1c-0.3,0-0.6,0-0.9,0c-0.5,0-0.9,0-1.4,0.1v3.1
	c0,0.1,0.1,0.3,0.2,0.4c0.5,0.1,1,0.2,1.6,0.2c0.5,0,1,0,1.5-0.2c0.3-0.1,0.6-0.2,0.7-0.5c0.3-0.4,0.6-0.9,0.7-1.3h0.5v0.5l-0.2,1.4
	l-0.1,0.8h-0.7c-0.2,0-0.9,0-1.9-0.1c-0.7,0-1.6-0.1-2.6-0.1c-0.6,0-1.2,0-1.8,0.1h-1v-0.5c0.2,0,0.3-0.1,0.5-0.1
	c0.3,0,0.6-0.1,0.9-0.2c0.1-0.2,0.1-0.3,0.1-0.5v-6.1L80.7,44v-0.1c0-0.1-0.1-0.1-0.2-0.1h-0.2c-0.2-0.1-0.5-0.1-0.7-0.1h-0.3V43z"
	/>
<path class="st1" d="M54.7,88h1.4v3.7L56,97.6v0.5c0,0.1,0,0.3,0.1,0.4c0.2,0.1,0.4,0.2,0.7,0.2s0.6,0.1,0.8,0.1v0.6h-2.1H54h-1.7
	v-0.6c0.2-0.1,0.5-0.1,0.8-0.2c0.3,0,0.5-0.1,0.8-0.3C54,98.2,54,98.1,54,98v-8.2c-0.5,0.3-0.9,0.6-1.4,0.9c-0.1,0-0.3,0.2-0.8,0.4
	c-0.1-0.2-0.3-0.4-0.4-0.6c0.6-0.3,1-0.6,1.2-0.7c0.4-0.3,0.8-0.6,1.2-1C54.2,88.5,54.4,88.3,54.7,88z"/>
<path class="st1" d="M59.7,99.7c-0.1-0.1-0.1-0.2-0.1-0.3c0-0.1,0-0.2,0.1-0.2c0.2-0.1,0.3-0.2,0.5-0.2c0.6-0.2,1.1-0.5,1.5-0.8
	c0.9-0.7,1.5-1.6,1.7-2.7c0.1-0.4,0.2-0.8,0.2-1.3c0-0.3,0-0.5,0.1-0.8c0-0.4,0.1-0.7,0-1.1c0.1-1-0.1-2.1-0.5-3
	c-0.2-0.4-0.6-0.6-1-0.6s-0.7,0.2-1,0.5c-0.4,0.6-0.6,1.3-0.5,2c0,0.5,0,1,0.1,1.6c0,0.3,0.1,0.6,0.3,0.9c0.1,0.1,0.2,0.2,0.3,0.3
	c0.2,0.1,0.4,0.2,0.7,0.2c0.2,0,0.3,0,0.5-0.1h0.1c0.1,0,0.1,0,0.2,0.1c0.2,0.2,0.1,0.5-0.1,0.7h-0.1c-0.4,0.1-0.8,0.2-1.2,0.2
	c-0.2,0-0.3,0-0.5,0c-0.4-0.1-0.7-0.3-1-0.4c-0.3-0.2-0.6-0.4-0.8-0.7c-0.2-0.3-0.3-0.6-0.4-0.9c-0.1-0.4-0.2-0.9-0.2-1.3
	c0-0.7,0.2-1.3,0.5-1.9s0.7-1,1.3-1.3c0.5-0.3,1.1-0.5,1.7-0.5c1.1,0,2.1,0.4,2.7,1.3c0.8,1,1.2,2.3,1.1,3.7c0,0.8-0.2,1.7-0.4,2.5
	c-0.2,0.4-0.4,0.8-0.6,1.2c-0.4,0.6-0.8,1.2-1.4,1.6c-0.5,0.5-1.2,0.9-1.9,1.1c-0.5,0.2-1,0.3-1.6,0.3L59.7,99.7z"/>
<path class="st1" d="M67.4,88.3h1.1h2.1h3.5v0.5c-0.1,0.4-0.2,0.8-0.4,1.2c-0.2,0.4-0.3,0.9-0.4,1.3S73.1,92,73,92.2
	c-0.2,0.4-0.3,0.8-0.4,1.1s-0.2,0.5-0.3,0.9l-0.4,1.2c-0.1,0.2-0.2,0.6-0.4,1.1l-0.7,1.9c0,0.1-0.1,0.2-0.1,0.3
	c0,0.1,0.1,0.2,0.2,0.3c0.1,0.1,0.2,0.2,0.2,0.3c0,0.1-0.1,0.2-0.1,0.3h-2c0.1-0.3,0.2-0.7,0.4-1c0.1-0.3,0.4-1,0.8-2.1l1.6-4l0.4-1
	c0.1-0.2,0.2-0.4,0.2-0.7l0.2-0.4h-3.8c-0.2,0-0.5,0-0.7,0.1c-0.1,0.1-0.2,0.3-0.2,0.5s-0.1,0.3-0.2,0.4s-0.2,0.1-0.4,0.1
	c-0.1,0-0.2,0-0.2-0.1C67,91.3,67,91.2,67,91.2c0-0.4,0-0.8,0.1-1.3c0-0.3,0.1-0.6,0.1-0.8C67.3,88.9,67.3,88.6,67.4,88.3z"/>
<path class="st1" d="M75.7,88.3h1.1h2.1h3.5v0.5c-0.1,0.4-0.2,0.9-0.4,1.3c-0.2,0.4-0.3,0.9-0.5,1.3s-0.2,0.7-0.3,0.9
	c-0.2,0.4-0.3,0.8-0.4,1.1c-0.1,0.2-0.2,0.5-0.3,0.9l-0.4,1.2c-0.1,0.2-0.2,0.6-0.4,1.1L79,98.5c0,0.1-0.1,0.2-0.1,0.3
	c0,0.1,0.1,0.2,0.2,0.3c0.1,0.1,0.2,0.2,0.2,0.3c0,0.1-0.1,0.3-0.2,0.3h-1.8c0.1-0.3,0.2-0.7,0.3-1c0.1-0.3,0.4-1,0.8-2.1l1.6-4
	l0.4-1c0.1-0.2,0.2-0.4,0.2-0.7c0-0.2,0.1-0.3,0.2-0.4h-3.7c-0.2,0-0.5,0-0.7,0.1c-0.1,0.1-0.2,0.3-0.2,0.5s-0.1,0.3-0.2,0.4
	s-0.2,0.1-0.4,0.1c-0.1,0-0.2,0-0.2-0.1s-0.1-0.2-0.1-0.2c0-0.4,0-0.8,0.1-1.3c0-0.3,0.1-0.6,0.1-0.8C75.6,88.9,75.7,88.5,75.7,88.3
	z"/>
<path class="st1" d="M47.8,54.9v30.6h40.1V54.9H47.8z M80.6,81.3H55.3L51.4,66c0,0,6,3,10.4,0.9s6.1-7.8,6.1-7.8s1.2,5.5,5.8,7.7
	c5.6,2.8,10.8-0.8,10.8-0.8L80.6,81.3z"/>
<path class="st1" d="M34.1,47.4c-0.1-0.1-0.3-0.3-0.4-0.4l0.5-0.8c0.1-0.1,0.1-0.3,0.2-0.4l-1.5-1.5c-0.6-0.5-1-0.8-1.3-1.1
	l-0.1-0.1c-0.2-0.2-0.6-0.5-1.3-1.2L30,41.8l-0.5-0.5L29,40.8l-0.3-0.2c-0.3-0.3-0.6-0.5-0.9-0.7c-0.1,0-0.1-0.1-0.2-0.1l-0.1,0.1
	L27.4,40c-0.2,0.1-0.3,0.3-0.5,0.4l-0.1,0.1c-0.1,0.1-0.2,0.1-0.2,0.2l-0.2-0.2c-0.1-0.1-0.1-0.1-0.2-0.2c0.1-0.1,0.1-0.2,0.2-0.3
	s0.2-0.2,0.2-0.3c0.5-0.4,0.8-0.7,1-0.9l0.3-0.3c0.1-0.1,0.2-0.2,0.2-0.3c0.3-0.3,0.5-0.7,0.7-1c0.1-0.1,0.1-0.2,0.2-0.3
	s0.2-0.2,0.3-0.3l0.2,0.2c0.1,0.1,0.2,0.2,0.2,0.2l-0.6,1c0,0.1,0,0.2,0.1,0.3l0.2,0.2l0.1,0.1l0.3,0.2L30,39l0,0l0.1,0.1l0.8,0.7
	l0.2,0.1l0.2,0.2l0.2,0.2c0.1,0.1,0.2,0.2,0.5,0.4l0.3-0.2l0.7-0.8l0.4-0.4l0.9-1l0.8-1c0.1-0.1,0.2-0.3,0.3-0.4l-1-0.9l-0.3-0.2
	l-1.1-1l-0.5-0.3c0,0-0.1,0-0.2,0c-0.4,0.1-0.7,0.3-1,0.5l-0.2,0.1c-0.1-0.1-0.2-0.2-0.3-0.4l0.1-0.2l0.5-0.5c0.4-0.3,0.7-0.6,1-1
	l0.2-0.2l0.6-0.8l0.2-0.1c0.1-0.2,0.2-0.3,0.3-0.5c0.1-0.1,0.2-0.2,0.4-0.4c0.2,0.1,0.3,0.3,0.4,0.4c-0.2,0.4-0.4,0.7-0.4,0.8
	C34,32.3,34,32.5,34,32.7l0,0.3l0.1,0.1l0.2,0.1l0.1,0.1l0.2,0.2l0.2,0.1l0.3,0.3l0.8,0.7l0.6,0.5l0.8,0.7c0.2,0.2,0.6,0.5,1.1,1
	l0.9,0.8l0.7,0.6l0.5,0.5l0.2-0.2c0.3-0.2,0.6-0.4,1-0.6l0.5,0.4L42,38.6c-0.2,0.2-0.4,0.4-0.6,0.6c-0.5,0.4-0.9,0.9-1.3,1.4
	c-0.4,0.4-0.7,0.8-1,1.2C39,41.9,39,41.9,38.9,42l-0.4-0.4l0.3-0.5l0.3-0.5l0.1-0.2c-0.3-0.3-0.8-0.8-1.6-1.5L37,38.3
	c-0.2-0.2-0.5-0.4-0.8-0.7c-0.1,0.1-0.3,0.3-0.4,0.4l-2.4,2.6l0,0l-0.1,0.1L33,41l-0.1,0.2c-0.1,0.1-0.1,0.2-0.2,0.3l0.4,0.4
	l0.1,0.1l0.2,0.2l1.9,1.7l0.3,0.3h0.1l0.9-0.7l0.1-0.1c0,0,0.1-0.1,0.2-0.1l0.2,0.2l0.2,0.2L37.1,44l-0.2,0.2l-0.1,0.1l-0.7,0.8
	c-0.3,0.2-0.5,0.5-0.7,0.8L35.3,46L35,46.2C34.7,46.6,34.4,47,34.1,47.4z"/>
<path class="st1" d="M41.8,38.7l-0.3-0.5c0.1-0.1,0.2-0.3,0.3-0.4c0.2-0.2,0.3-0.4,0.5-0.6c0-0.2,0-0.4,0-0.6l-1.2-4.5L39.7,27
	l0.4-0.3l0.3-0.2l0.1,0.1l3,2.1c0.6,0.4,1.3,0.9,1.8,1.3s1,0.8,1.4,1.1s0.6,0.4,1,0.7c0.2,0.2,0.5,0.4,0.9,0.7
	c0.1,0.1,0.3,0.2,0.4,0.2c0.2,0,0.3,0,0.5-0.1s0.4-0.2,0.7-0.2c0.1,0.1,0.2,0.2,0.3,0.3l0.1,0.2c-0.3,0.2-0.7,0.4-1,0.6
	c-0.3,0.2-0.7,0.4-1,0.6c-0.3,0.2-0.6,0.4-0.7,0.5l-1,0.8l-0.3,0.2c-0.1-0.2-0.2-0.3-0.3-0.5l0.6-0.6c0.1-0.1,0.2-0.2,0.3-0.4
	c0-0.1,0-0.1,0-0.2c0-0.1-0.1-0.1-0.2-0.2l-0.7-0.5l-1.4-1l-2.4,1.6c0.1,0.3,0.2,0.9,0.5,2c0,0.2,0.1,0.4,0.2,0.6
	c0.1,0.1,0.1,0.2,0.3,0.2s0.5-0.1,0.7-0.2l0.5-0.2l0.2,0.3l0.1,0.2c-0.2,0.2-0.9,0.5-1.9,1.1L42.9,38c-0.3,0.2-0.5,0.5-0.8,0.7
	C42.1,38.7,41.8,38.7,41.8,38.7z M42.1,32.9c1-0.6,1.5-1,1.7-1.1l0.2-0.1c-0.4-0.3-0.9-0.7-1.4-1.1s-1-0.7-1.3-0.9L42.1,32.9z"/>
<path class="st1" d="M49.5,32.8c0.2-0.1,0.3-0.3,0.5-0.4l0.4-0.2c0.1,0,0.2-0.1,0.3-0.2c0-0.1,0-0.2-0.1-0.3l-0.4-1l-0.3-1l-0.3-0.6
	l-0.3-0.8L49,27.5l-0.7-1.7L48,25v-0.1c-0.1-0.3-0.3-0.6-0.5-0.9c-0.2,0-0.3,0-0.5,0h-0.7c-0.1,0-0.3,0-0.4,0l0.1-0.4
	c0-0.1-0.1-0.1-0.1-0.2l0.1-0.1l1.2-0.4l1-0.4l0.7-0.3c0.3-0.1,0.7-0.3,1.2-0.5l0.2-0.1c0.1,0,0.1,0,0.2,0c0.1,0.1,0.1,0.2,0.2,0.3
	c0,0.1,0,0.2,0,0.3c0,0-0.1,0.1-0.3,0.2L49.6,23l-0.1,0.1v0.1l0.1,0.2l0.2,0.5L50,24l0,0l0.2,0.4c0,0.1,0,0.1,0.1,0.2
	s0.1,0.2,0.2,0.4s0.2,0.6,0.3,0.8s0.2,0.6,0.3,0.9c0,0.2,0.1,0.3,0.2,0.5l1.4,3.7c0.1,0.1,0.1,0.2,0.2,0.3l0.7-0.2l0.4-0.2l0.4-0.2
	c0.6-0.2,1.2-0.6,1.7-1c0.2-0.2,0.4-0.4,0.5-0.7c0.1-0.2,0.2-0.4,0.2-0.6c0-0.3,0-0.7,0-1l0.2-0.1c0.1-0.1,0.3-0.1,0.4-0.1l0.1,0.2
	c0.1,0.4,0.3,1,0.6,2c0.1,0.2,0.1,0.5,0.2,0.7L58,30.2l-0.3,0.1l-0.4,0.1l-0.8,0.3l-1.3,0.5c-0.8,0.3-1.6,0.6-2.3,0.9l-1.4,0.6
	c-0.5,0.2-1,0.5-1.5,0.7h-0.2l-0.1-0.1C49.6,33.1,49.5,32.9,49.5,32.8z"/>
<path class="st1" d="M57.7,29.5c0.2-0.1,0.4-0.2,0.6-0.2l0.5-0.1c0.1,0,0.3-0.1,0.4-0.2c0-0.1,0-0.2,0-0.3L59,27.6l-0.1-1.1
	l-0.1-0.7L58.6,25l-0.2-0.9l-0.3-1.8L58,21.5v-0.1c-0.1-0.3-0.1-0.6-0.2-0.9c-0.1-0.1-0.3-0.1-0.5-0.1L57,20.3l-0.3-0.1
	c-0.1,0-0.3,0-0.4-0.1c0-0.1,0-0.2-0.1-0.3c0-0.1,0-0.1,0-0.2l0.1-0.1l1.3-0.1l1-0.2l0.8-0.1c0.3,0,0.8-0.1,1.3-0.3l0.3-0.1
	c0.1,0,0.1,0,0.2,0c0.1,0.1,0.1,0.2,0.1,0.3c0,0.1,0,0.2,0,0.3c-0.1,0.1-0.2,0.1-0.3,0.1l-0.9,0.4L60,20v0.3l0.1,0.5V21l0.1,0.5v0.2
	c0,0.2,0,0.3,0.1,0.5c0.1,0.3,0.1,0.6,0.2,0.9c0,0.2,0.1,0.6,0.1,1c0,0.2,0,0.4,0.1,0.5l0.6,3.9c0,0.1,0.1,0.2,0.1,0.3l0.7-0.1
	l0.4-0.1l0.5-0.1c0.6-0.1,1.3-0.3,1.8-0.6c0.2-0.1,0.4-0.3,0.6-0.6c0.1-0.2,0.2-0.4,0.3-0.6c0.1-0.3,0.2-0.7,0.2-1h0.6V26
	c0.1,0.4,0.1,1.1,0.2,2.1c0,0.2,0,0.5,0,0.7l-0.2,0.1h-0.3L65.8,29H65l-1.4,0.2c-0.8,0.1-1.7,0.2-2.5,0.4l-1.5,0.3
	c-0.6,0-1.1,0.1-1.6,0.2h-0.2V30C57.7,29.8,57.7,29.7,57.7,29.5z"/>
<path class="st1" d="M66.4,28.5l0.1-0.6c0.4,0,0.9-0.1,1.2-0.3c0.2-0.3,0.3-0.6,0.4-1l0.4-2.9l0.4-3v-0.3c0.1-0.4,0.1-0.9,0-1.4
	c-0.1-0.1-0.4-0.3-0.9-0.5l-0.3-0.1v-0.6h0.7l2.2,0.3h0.2h0.3c0.1,0.1,0.2,0.3,0.2,0.5c0.1,0.4,0.3,1,0.6,1.9l0.1,0.2l0.9,2.9
	c0,0.1,0,0.2,0.1,0.3l0.2,0.6l0.2,0.6c0.1,0.2,0.1,0.4,0.2,0.6l0.2-0.4c0.2-0.5,0.5-0.9,0.7-1.3c0.4-0.7,1-1.8,1.7-3.3
	c0.1-0.2,0.3-0.6,0.6-1.1l0.4-0.8c0.1,0,0.2,0,0.3,0h0.2c0.3,0,0.6,0,0.9,0c0.5,0,0.9,0.1,1.2,0.1h0.7v0.4c0,0.1,0,0.1,0,0.2
	c-0.4,0.1-0.8,0.2-1.2,0.3C79.1,19.9,79,20,79,20.2v0.1L78.7,23c0,0.2-0.1,1.4-0.2,3.5c0,0.5-0.1,1-0.1,1.8c0,0.1,0,0.1,0,0.2
	s0,0.2,0.1,0.3c0.4,0.2,0.8,0.4,1.3,0.6v0.5c0,0.1-0.5-0.1-1-0.2s-1-0.2-1.5-0.2c-0.7-0.1-1.4-0.1-2.1-0.1h-0.3l0.1-0.6
	c0.3-0.1,0.5-0.1,0.8-0.1c0.2,0,0.4-0.1,0.5-0.2c0.1-0.3,0.2-0.6,0.2-0.9v-0.5c0-0.6,0.1-1.4,0.2-2.4l0.2-2.9v-0.9l-2.3,4.5
	c-0.1,0.1-0.1,0.3-0.2,0.5l-0.3,0.5c-0.4,0.7-0.7,1.5-1,2.2c0,0.1-0.1,0.3-0.2,0.5L72.3,29L72,27.7c-0.1-0.3-0.2-0.9-0.5-1.6
	c-0.1-0.4-0.2-0.7-0.3-1c0-0.1-0.1-0.2-0.1-0.3v-0.2v-0.1l-1-2.5l-0.5-1.7l-0.5,3.9l-0.3,2.5c-0.1,0.3,0,0.6,0.1,0.9
	c0.2,0.3,0.5,0.5,0.9,0.5l0.3,0.1V29c-0.3,0-0.6-0.1-0.9-0.2c-0.4-0.1-0.9-0.2-1.3-0.2L66.4,28.5z"/>
<path class="st1" d="M78.8,29.9l0.2-0.5c0.2,0,0.3,0,0.5,0.1c0.2,0,0.5,0,0.7,0c0.2-0.1,0.3-0.2,0.5-0.3l3-3.5l3.5-4.2l0.4,0.2
	l0.3,0.1V32c0,0.2,0,0.3,0.1,0.5c0.1,0.1,0.2,0.2,0.3,0.3c0.2,0.1,0.4,0.3,0.5,0.4c0,0.1-0.1,0.3-0.1,0.4c0,0.1,0,0.1-0.1,0.2
	c-0.3-0.1-0.7-0.3-1.1-0.5s-0.8-0.4-1.1-0.5l-0.8-0.3L84.4,32l-0.3-0.1c0.1-0.2,0.1-0.3,0.2-0.5l0.8,0.1c0.2,0,0.3,0,0.5,0
	c0.1,0,0.1-0.1,0.1-0.1c0-0.1,0-0.2,0-0.2v-0.9l0.1-1.7l-2.6-1c-0.2,0.2-0.6,0.7-1.3,1.6c-0.1,0.2-0.3,0.3-0.3,0.5
	c-0.1,0.1-0.1,0.2,0,0.3c0.1,0.2,0.3,0.4,0.5,0.5l0.5,0.3L82.4,31c0,0.1,0,0.1-0.1,0.2c-0.3-0.1-1-0.4-2-0.9L80,30.2
	c-0.3-0.1-0.7-0.2-1-0.3L78.8,29.9z M83.8,26.8l1.9,0.8l0.2,0.1c0-0.5,0.1-1.1,0.1-1.8s0-1.2,0-1.6L83.8,26.8z"/>
<path class="st1" d="M88.3,33c0.2,0,0.4,0.1,0.6,0.2c0.2,0.1,0.4,0.2,0.7,0.2l0.2-0.2c0.2-0.2,0.3-0.4,0.5-0.7l1-1.5l0.6-0.8
	l0.4-0.6l0.3-0.4c0.3-0.5,0.7-1,1-1.4c0.7-1,1.1-1.6,1.2-1.8l-0.3-0.3c-0.2-0.2-0.4-0.3-0.6-0.5l0.3-0.4l0.1-0.1
	c0.2,0.1,0.4,0.2,0.6,0.3l0.6,0.4c0.3,0.2,0.4,0.4,0.4,0.4l0.3,0.2l0.8,0.5c0.5,0.3,1.1,0.6,1.6,1c0.8,0.5,1.3,1.2,1.6,2.1
	c0.2,0.7,0,1.5-0.4,2.1c-0.3,0.5-0.7,0.8-1.3,1c-0.6,0.2-1.2,0.2-1.8,0v0.5c0,0.3,0,0.7-0.1,1l-0.2,2.5c-0.1,0.4-0.1,0.8-0.1,1.2
	c0.1,0.2,0.2,0.4,0.3,0.6c0.1,0.2,0.2,0.3,0.3,0.5c0,0.1-0.1,0.2-0.1,0.2l-0.1,0.2l-0.2-0.1l-0.1-0.1l-0.3-0.3l-0.3-0.2
	c-0.1-0.1-0.3-0.3-0.5-0.4l-0.6-0.4c0,0-0.2-0.1-0.5-0.2l-0.3-0.2l0.1-0.6c0.1-0.5,0.1-0.8,0.2-1c0.1-0.6,0.3-1.5,0.5-2.8
	c0.1-0.4,0.1-0.8,0-1.1c-0.1-0.2-0.3-0.5-0.5-0.6l-0.4-0.3c-0.1,0.1-0.2,0.3-0.3,0.5l-1,1.5l-0.9,1.3c0.1,0.2,0.2,0.3,0.3,0.5
	c0.2,0.2,0.5,0.5,0.7,0.8c-0.1,0.2-0.2,0.3-0.4,0.5L92,36.1L91.6,36c-0.8-0.7-1.3-1.1-1.5-1.2c-0.1-0.1-0.1-0.1-0.2-0.2L89,34.1
	c-0.3-0.1-0.5-0.3-0.8-0.4L88,33.5l0.1-0.2L88.3,33z M94.1,30.5l0.4,0.3c0.5,0.4,1.1,0.6,1.8,0.6c0.5-0.1,0.9-0.4,1.2-0.8
	c0.2-0.3,0.3-0.6,0.4-0.9C98,29.5,98,29.2,98,29c0-0.3-0.1-0.6-0.3-0.8c-0.4-0.4-0.8-0.7-1.3-1l-0.1,0.1l-0.6,0.9l-0.4,0.5l-0.5,0.8
	l-0.6,0.8L94.1,30.5z"/>
<path class="st1" d="M96.1,38.4c0.5,0.1,0.9,0.3,1.4,0.6c0.1,0,0.2,0,0.3,0c0.4-0.3,0.7-0.5,1-0.8l0.4-0.4l0.1-0.1l1.3-1.2l0.9-0.8
	l0.3-0.2l0.2-0.2c0.1-0.1,0.2-0.2,0.3-0.2l0.2-0.3h0.1l0.3-0.2c0.3-0.3,0.6-0.6,0.9-1c0-0.3-0.1-0.6-0.3-0.9
	c-0.1-0.2-0.2-0.4-0.2-0.6l0.4-0.3l0.2,0.2c0.3,0.3,0.5,0.6,0.7,0.9c0.3,0.4,0.6,0.8,0.9,1.1l0.6,0.5c0.2,0.2,0.4,0.4,0.6,0.6
	l0.2,0.2l0.1,0.2c0,0.1-0.1,0.1-0.1,0.1l-0.3,0.2c-0.3-0.1-0.6-0.3-0.8-0.5c-0.1-0.1-0.3-0.2-0.4-0.3c-0.1,0-0.2,0-0.3,0.1l-0.5,0.4
	l-0.3,0.3l-0.5,0.5l-0.4,0.4L103,37l-0.4,0.4l-0.1,0.1h3.1h1.6c0.2,0,0.4-0.1,0.6-0.1v-0.1c-0.1-0.2-0.2-0.4-0.4-0.6
	c-0.1-0.1-0.2-0.3-0.3-0.5c0.1-0.1,0.2-0.2,0.3-0.3l0.1-0.1l0.2,0.2c0.1,0.2,0.3,0.3,0.4,0.5c0.2,0.2,0.3,0.4,0.4,0.5l1.2,1.3
	l0.7,0.6l-0.5,0.4l-0.4-0.3c-0.4-0.2-0.8-0.4-1.2-0.6c-0.2-0.1-0.5-0.1-0.8-0.2c-0.3,0-0.8-0.1-1.6-0.1h-2c0,0.2,0,0.4-0.1,0.5v0.6
	l-0.5,2.5l-0.5,2.2c-0.1,0.3-0.1,0.4-0.1,0.5v0.2c0,0.1,0,0.2,0,0.3s0.1,0.2,0.1,0.3c0.1,0.2,0.2,0.4,0.2,0.7
	c-0.1,0.1-0.1,0.1-0.2,0.2l-0.2,0.2l-0.5-0.6c-0.1-0.1-0.2-0.2-0.3-0.4l-0.5-0.6l-0.1-0.1l-0.7-0.8c-0.1-0.1-0.3-0.3-0.6-0.6
	l-0.3-0.3l0.1,0.1c0-0.1,0.1-0.1,0.1-0.2c0.1-0.1,0.1-0.1,0.2-0.2c0.2,0.1,0.4,0.2,0.6,0.3c0.1,0.1,0.2,0.1,0.3,0.2
	c0.1,0,0.2,0,0.2-0.1l0.1-0.1c0.1-0.1,0.1-0.3,0.2-0.5c0-0.1,0.1-0.6,0.3-1.7l0.5-3c-0.2,0.1-0.3,0.3-0.5,0.4
	c-0.2,0.2-0.4,0.4-0.6,0.6l-0.8,0.7l-0.6,0.5L99,40.7c0,0.3,0.1,0.6,0.2,0.8s0.2,0.4,0.2,0.6c-0.1,0.1-0.1,0.2-0.2,0.2L99,42.4
	L98.7,42c-0.1-0.1-0.2-0.2-0.2-0.3L97.8,41l-0.3-0.3l-0.4-0.4l-0.9-1l-0.5-0.5L96.1,38.4z"/>
<path class="st1" d="M27.2,74.7c-0.3,0.1-0.5,0.1-0.8,0.2c-0.5,0.1-1,0.1-1.2,0.2h-0.3v-0.7c0.5-0.1,1-0.4,1.4-0.7
	c0.4-0.3,0.6-0.8,0.5-1.3c0-0.4-0.2-0.8-0.5-1.1c-0.3-0.2-0.6-0.4-1-0.3c-0.4,0-0.7,0.2-0.9,0.5c-0.4,0.5-0.7,1.1-0.8,1.7
	c-0.1,0.4-0.2,0.7-0.4,1.1c-0.1,0.4-0.3,0.7-0.6,1c-0.3,0.3-0.6,0.5-0.9,0.6c-0.4,0.1-0.7,0.2-1.1,0.2c-0.5,0-1,0-1.5-0.2
	c-0.3-0.1-0.5-0.2-0.7-0.4c-0.2-0.2-0.4-0.4-0.6-0.6c-0.2-0.3-0.4-0.6-0.5-0.9c-0.2-0.4-0.3-0.8-0.3-1.2c0-0.4,0-0.8,0.1-1.2
	l0.2-0.9c0-0.2,0.1-0.3,0.2-0.4l0.1-0.1h0.1l1.1-0.1l0.7-0.1h0.3l0.1,0.7c-0.3,0.1-0.7,0.3-1,0.5c-0.2,0.1-0.4,0.3-0.6,0.5
	c-0.3,0.4-0.5,0.9-0.5,1.5c0,0.3,0.1,0.5,0.2,0.8s0.4,0.5,0.6,0.7c0.3,0.2,0.6,0.2,0.9,0.2c0.4,0,0.8-0.2,1-0.6
	c0.3-0.5,0.6-1.1,0.7-1.6c0.2-0.6,0.4-1.3,0.8-1.8c0.3-0.4,0.6-0.7,1-0.9c0.4-0.2,0.8-0.3,1.3-0.4c0.8-0.1,1.6,0.2,2.2,0.7
	c0.6,0.6,1,1.4,1,2.3c0,0.3,0,0.7-0.1,1C27.3,74,27.3,74.4,27.2,74.7z"/>
<path class="st1" d="M27.2,74.8c0,0.2,0.1,0.5,0.1,0.7c0,0.4,0.1,0.9,0.2,1.3s0.2,0.8,0.3,1.2c0.3,1,0.5,1.9,0.7,2.7l0.3,1.3
	c0.1,0.4,0.1,0.8,0.2,1.3c-0.1,0.1-0.2,0.2-0.4,0.2L27,83.9L26.7,84h-0.1l-0.1-0.3v-0.2l0.4-0.3l0.5-0.4c0.2-0.2,0.4-0.4,0.6-0.6
	c0-0.2,0-0.3,0-0.4l0-0.5c-0.1-0.4-0.1-0.9-0.3-1.4s-0.3-1-0.4-1.5c-0.1,0-0.6,0.1-1.5,0.3L24.5,79l-1,0.2c0,0.1,0,0.2,0,0.3
	c0.2,0.8,0.4,1.4,0.5,1.7c0.1,0.2,0.2,0.4,0.3,0.6c0.1,0.1,0.2,0.1,0.4,0.2H26v0.1l0.1,0.4l-1,0.3l-1,0.2l-0.4,0.1l-0.6,0.2
	l-0.7,0.2h-0.2L22.1,83l0.5-0.2c0.3-0.1,0.6-0.3,0.8-0.5c0.1-0.1,0.1-0.2,0.1-0.3c0-0.3-0.1-0.7-0.2-1c-0.1-0.5-0.3-1-0.4-1.5
	l-0.2,0.1c-0.6,0.2-1.1,0.3-1.5,0.4l-1.6,0.4c-0.2,0-0.3,0.1-0.4,0.3c0,0.6,0.1,1.2,0.2,1.8c0.1,0.5,0.3,1.1,0.5,1.6
	c0.2,0.3,0.4,0.5,0.7,0.7c0.5,0.3,1,0.4,1.6,0.4c0,0.1,0.1,0.3,0.1,0.3c0,0.1,0,0.2,0,0.2H22h-0.2l-1.5,0.1l-0.9,0.1
	c-0.1-0.3-0.1-0.5-0.2-0.7s-0.2-0.9-0.4-2.1c-0.1-0.8-0.4-1.7-0.6-2.8c-0.1-0.5-0.3-1.2-0.5-2L17.6,78l-0.2-0.8l0.5-0.1
	c0.1,0.2,0.2,0.3,0.2,0.5c0.1,0.3,0.3,0.6,0.5,0.9c0.2,0,0.4,0,0.6-0.1l0.4-0.1h0.2l2.9-0.7l0.9-0.2l1.2-0.4l0.9-0.2l0.9-0.3h0.1
	c0.1-0.1,0.1-0.1,0.1-0.2V76c0-0.3,0-0.5-0.1-0.8v-0.3L27.2,74.8z"/>
<path class="st1" d="M19.8,87l0.5-0.2c0.1,0.1,0.2,0.2,0.3,0.4c0.1,0.2,0.3,0.4,0.5,0.5s0.4,0.1,0.5,0.1l4.4-0.4l5.1-0.5
	c0.1,0.1,0.1,0.3,0.2,0.4l0.1,0.3l-0.1,0.1L28.8,90c-0.5,0.5-1,1-1.5,1.5s-0.9,0.9-1.2,1.2s-0.5,0.5-0.8,0.8
	c-0.2,0.2-0.5,0.4-0.7,0.8c-0.1,0.1-0.2,0.2-0.3,0.3c-0.1,0.1-0.1,0.3,0,0.4c0.1,0.2,0.1,0.4,0.1,0.6l-0.3,0.2L24,96
	c-0.1-0.3-0.3-0.7-0.4-1.1c-0.1-0.3-0.3-0.7-0.4-1s-0.3-0.6-0.4-0.7l-0.6-1.1L22,91.8l0.5-0.2l0.5,0.6c0.1,0.1,0.2,0.2,0.3,0.3
	c0.1,0,0.1,0,0.2,0s0.1-0.1,0.2-0.1l0.6-0.6l1.1-1.1l-1.1-2.4c-0.3,0-0.9,0.1-1.9,0.2c-0.2,0-0.4,0-0.6,0.1c-0.1,0-0.2,0.1-0.2,0.2
	c0,0.2,0,0.4,0.1,0.7c0,0,0,0.2,0.1,0.5l-0.4,0.2c-0.1,0-0.1,0-0.2,0.1c-0.1-0.3-0.4-0.9-0.8-1.9l0-0.4c-0.2-0.3-0.4-0.6-0.5-0.9
	L19.8,87z M25.2,88.2c0.5,1,0.7,1.6,0.8,1.8l0.1,0.2c0.4-0.3,0.8-0.7,1.2-1.2c0.4-0.3,0.7-0.7,1-1.1L25.2,88.2z"/>
<path class="st1" d="M24.7,95.8c0.2,0.1,0.3,0.3,0.5,0.4c0.1,0.1,0.2,0.2,0.3,0.3s0.2,0.2,0.3,0.2c0.1,0,0.2-0.1,0.3-0.2l0.8-0.6
	l0.9-0.6l0.5-0.4l0.6-0.4l0.7-0.5l1.4-1l0.6-0.4l0.1-0.1c0.2-0.2,0.5-0.4,0.7-0.6c0-0.2,0-0.3-0.1-0.4l-0.1-0.3c0-0.1,0-0.2-0.1-0.3
	C32,90.8,32,90.6,32,90.5l0.2-0.2l0.2-0.1l0.1,0.1l0.7,1l0.6,0.8l0.4,0.6c0.2,0.3,0.5,0.6,0.8,1l0.2,0.2c0,0.1,0,0.1,0,0.2
	c-0.1,0.1-0.1,0.2-0.2,0.2c-0.1,0.1-0.2,0.1-0.3,0.1c-0.1-0.1-0.2-0.1-0.2-0.2l-0.7-0.6l-0.1-0.1h-0.1l-0.2,0.1L33,93.9L32.9,94
	h-0.1l-0.4,0.2l-0.2,0.1l-0.3,0.3c-0.2,0.2-0.5,0.4-0.7,0.5l-0.8,0.5L30,96.1l-3,2.1c-0.1,0.1-0.2,0.2-0.2,0.2l0.4,0.6l0.2,0.3
	l0.2,0.4c0.3,0.5,0.8,1,1.3,1.4c0.2,0.2,0.5,0.2,0.7,0.3c0.2,0,0.4,0,0.6,0c0.3-0.1,0.6-0.1,0.9-0.2l0.1,0.2
	c0.1,0.1,0.1,0.2,0.2,0.3l-0.2,0.1c-0.5,0.4-1.1,0.7-1.7,1c-0.2,0.1-0.4,0.2-0.6,0.3c-0.1,0-0.1,0-0.1-0.1l-0.1-0.2l-0.2-0.3
	l-0.4-0.7l-0.7-1.1l-1.3-2l-0.9-1.1c-0.3-0.4-0.6-0.8-1-1.2l-0.1-0.1L24,96.2l0.1-0.1C24.4,95.9,24.5,95.9,24.7,95.8z"/>
<path class="st1" d="M36,103.2c0.4-0.5,0.9-1,1.5-1.3c0.9-0.5,1.9-0.8,2.9-0.7c0.5,0,1,0.1,1.5,0.3c0.5,0.2,0.9,0.5,1.3,0.8
	c0.7,0.5,1.3,1.2,1.6,2c0.3,0.7,0.4,1.5,0.3,2.3c-0.2,2.5-2.1,4.5-4.5,4.9c-1.4,0.3-2.9-0.1-3.9-1.1c-0.3-0.2-0.6-0.5-0.8-0.8
	c-0.2-0.2-0.3-0.4-0.4-0.6l-0.3-0.5c-0.2-0.5-0.3-1-0.3-1.6c0-0.5,0-0.9,0.1-1.4c0.1-0.4,0.3-0.9,0.5-1.3
	C35.5,104,35.7,103.6,36,103.2z M42.5,102.7c-0.3-0.2-0.6-0.4-1-0.4c-0.3,0-0.7,0-1,0.1c-0.5,0.2-0.9,0.4-1.3,0.8
	c-0.5,0.4-0.9,0.9-1.3,1.4c-0.2,0.2-0.4,0.5-0.6,0.8l-0.2,0.3c-0.2,0.2-0.3,0.5-0.4,0.8c-0.2,0.4-0.3,0.8-0.4,1.2
	c-0.1,0.3-0.1,0.7,0,1c0.1,0.5,0.4,1,0.8,1.3c0.4,0.3,0.9,0.5,1.3,0.6c0.6,0,1.2-0.1,1.7-0.4c0.7-0.4,1.3-1,1.8-1.7
	c0.3-0.3,0.6-0.8,1-1.4L43,107c0,0,0.1-0.1,0.1-0.3c0.4-0.7,0.5-1.4,0.4-2.2C43.4,103.7,43.1,103.1,42.5,102.7L42.5,102.7z"/>
<path class="st1" d="M42.1,114.3l0.3-0.5l0.5,0.1l0.7,0.2h0.2c0.1-0.2,0.2-0.4,0.3-0.5l0,0l0.8-1.6l0.3-0.7l0.5-1l0.6-1.2l1.1-2.4
	c-0.1-0.2-0.3-0.4-0.5-0.5c-0.1-0.1-0.2-0.2-0.3-0.3l-0.1-0.1l0.2-0.5l0.8,0.4c0.7,0.4,1.4,0.8,2.2,1.2c0.5,0.2,1,0.5,1.5,0.7h0.1
	l0.3,0.2l0.1,0.1L52,108l1.2,0.5l0.2,0.1l0.2,0.1c0,0.2-0.1,0.3-0.2,0.4l-0.5,1.3c-0.1,0.1-0.1,0.2-0.2,0.3c-0.1,0-0.2-0.1-0.4-0.1
	c-0.1,0-0.1-0.1-0.2-0.2c0-0.1,0-0.3,0-0.4c0.1-0.3,0.1-0.7,0-1.1c-0.3-0.3-0.6-0.5-1-0.6l-0.9-0.4c-0.3-0.1-0.6-0.3-0.9-0.4h-0.2
	c-0.1,0.1-0.2,0.2-0.2,0.4l-0.4,0.8l-0.5,1c-0.2,0.3-0.3,0.6-0.4,0.9c0,0,0,0.1,0.1,0.1l0.4,0.2l0.8,0.4c0.3,0.1,0.5,0.2,0.8,0.3
	c0.2,0.1,0.3,0.1,0.5,0.1c0.1,0,0.3-0.1,0.4-0.2c0.2-0.2,0.4-0.5,0.5-0.8l0.2,0.1h0.1l0.3,0.2l-0.6,1.1l-0.3,0.6l-0.1,0.2
	c0,0-0.2,0.4-0.5,1l-0.1,0.2l-0.2-0.1c-0.1,0-0.2-0.1-0.2-0.2s0-0.3,0.1-0.4c0.1-0.4,0.1-0.7,0-0.8c-0.5-0.5-1.1-0.9-1.8-1.1
	c-0.2-0.1-0.4-0.2-0.6-0.2c-0.1,0.2-0.3,0.4-0.4,0.7l-1,2.1c-0.1,0.2-0.2,0.5-0.2,0.8c0,0.1,0.2,0.2,0.4,0.4l0.1,0.1
	c0.2,0.1,0.3,0.2,0.5,0.3l0.2,0.1l-0.1,0.3c0,0.1-0.1,0.2-0.2,0.3l-0.1-0.1l-0.2-0.1l-0.9-0.5l-1.4-0.7c-0.2-0.1-0.4-0.2-0.7-0.3
	c-0.2-0.1-0.4-0.1-0.6-0.2L42.1,114.3z"/>
<path class="st1" d="M56,109.7l0.7,0.2c0.4,0.2,0.8,0.3,1.2,0.3c0.2,0,0.6,0.1,1.3,0.2c1,0.2,2,0.3,2.8,0.5l1.2,0.2
	c0.4,0.1,0.8,0.2,1.2,0.4c0.1,0.1,0.1,0.3,0,0.4l-0.3,1.6v0.3v0.1h-0.3l-0.2-0.1c0-0.2,0-0.3-0.1-0.5l-0.2-0.6
	c-0.1-0.3-0.2-0.5-0.3-0.8c-0.1-0.1-0.3-0.1-0.4-0.2l-0.4-0.1c-0.4-0.1-0.9-0.3-1.4-0.3c-0.6-0.1-1-0.2-1.5-0.3
	c0,0.1-0.1,0.6-0.3,1.5l-0.2,1.3l-0.2,1L59,115c0.8,0.2,1.4,0.2,1.8,0.3c0.2,0,0.5,0,0.7,0c0.1-0.1,0.2-0.2,0.3-0.3
	c0.1-0.1,0.2-0.5,0.5-1.1h0.1l0.4,0.1c-0.1,0.5-0.1,0.8-0.2,1c-0.1,0.5-0.2,0.9-0.2,1s-0.1,0.2-0.1,0.3s-0.1,0.4-0.1,0.7
	s-0.1,0.5-0.1,0.7v0.2l-0.5-0.1v-0.5c0-0.3,0-0.6-0.1-0.9c0-0.1-0.1-0.2-0.2-0.3c-0.3-0.1-0.7-0.2-1-0.2c-0.5-0.1-1-0.2-1.6-0.2
	c0,0.1,0,0.2,0,0.3c-0.1,0.6-0.2,1.1-0.3,1.5l-0.5,1.7c-0.1,0.2,0,0.3,0.1,0.4c0.5,0.3,1.1,0.4,1.7,0.5c0.5,0.1,1.1,0.2,1.7,0.2
	c0.3,0,0.7-0.1,0.9-0.3c0.4-0.4,0.8-0.8,1.1-1.3h0.4l0.2,0.1c0,0.1,0,0.2-0.1,0.3l-0.1,0.2l-0.5,1.4l-0.3,0.8l-0.7-0.1l-2-0.5
	c-0.8-0.2-1.7-0.4-2.8-0.6c-0.5-0.1-1.2-0.2-2-0.3H55l-0.8-0.1l0.1-0.5c0.2,0,0.4,0,0.5,0c0.3,0.1,0.7,0.1,1,0
	c0.1-0.2,0.1-0.4,0.2-0.5c0-0.2,0-0.3,0.1-0.4v-0.2l0.5-2.9l0.2-0.9l0.2-1.2l0.2-0.9l0.1-1v-0.2c0-0.1-0.1-0.1-0.2-0.2l-0.2-0.1
	c-0.2-0.1-0.5-0.2-0.7-0.2l-0.3-0.1L56,109.7z"/>
<path class="st1" d="M64.1,111.4h1.5c0.4,0,0.8,0,1.1,0c0.6,0,1.2-0.1,1.7-0.2h0.2v0.5l-0.2,0.1l-0.7,0.2c-0.1,0-0.2,0.1-0.2,0.1
	v0.2c0.3,0.6,0.6,1.1,1,1.6l0.7,1.1l0.1,0.1l0.4-0.6l0.8-1.4c0.2-0.2,0.3-0.5,0.4-0.8c0,0,0-0.1,0-0.2V112l-0.2-0.1h-0.3
	c-0.2,0-0.4,0-0.7,0v-0.6h0.1h3.5c0,0.1,0,0.2,0,0.3v0.2l-1.1,0.3c-0.1,0.1-0.2,0.1-0.3,0.2c-0.1,0.1-0.4,0.5-0.8,1.2l-1,1.5
	l-0.3,0.4l-0.2,0.3L70,116c0.3,0.4,0.5,0.8,0.8,1.2l1.4,2.3c0.2,0.4,0.5,0.8,0.8,1.1c0.3,0.2,0.7,0.3,1,0.3v0.6h-2.3
	c-0.3,0-0.7,0-1,0.1s-0.6,0.1-0.9,0.1h-0.6v-0.5c0.4-0.1,0.7-0.2,1.1-0.3l0.2-0.1v-0.1v-0.1c-0.1-0.1-0.1-0.3-0.2-0.4
	c-0.2-0.4-0.5-0.8-0.9-1.3l-0.9-1.2c-0.1,0.1-0.5,0.7-1.1,1.8c-0.2,0.2-0.4,0.4-0.6,0.7c-0.1,0.1-0.1,0.2-0.1,0.4v0.1l0.1,0.1
	c0.2,0.1,0.4,0.2,0.7,0.3l0.5,0.2l0.1,0.4v0.1h-0.3h-0.7c-0.2,0-0.4,0-0.7,0h-0.3l-1.6,0.1h-0.3V121h0.3c0.3,0,0.6-0.1,0.8-0.2
	c0.2-0.1,0.3-0.3,0.4-0.5c0.3-0.4,0.6-0.8,0.9-1.2l0.3-0.5l1.1-1.7l-0.4-0.7c-0.3-0.4-0.5-0.8-0.7-1l-0.4-0.7
	c-0.2-0.3-0.3-0.5-0.3-0.6c-0.2-0.3-0.5-0.7-0.8-1.3c-0.1-0.2-0.3-0.3-0.5-0.4c-0.3-0.1-0.6-0.2-0.9-0.2v-0.4L64.1,111.4z"/>
<path class="st1" d="M80.2,110.2c0.1,0.1,0.3,0.6,0.6,1.2c0.1,0.3,0.3,0.7,0.3,1l-0.6,0.1c-0.5-0.5-1-1-1.7-1.2
	c-0.5-0.2-1.1-0.3-1.7-0.2c-0.7,0.1-1.3,0.6-1.6,1.2c-0.5,1.2-0.5,2.5-0.2,3.7c0.1,0.6,0.3,1.2,0.5,1.8c0.2,0.5,0.5,0.9,0.9,1.3
	c0.2,0.3,0.5,0.4,0.9,0.6s0.9,0.2,1.4,0.1s1-0.4,1.4-0.8c0.5-0.5,0.8-1.2,1.1-1.8c0.2-0.1,0.4-0.1,0.7-0.2c0,0.2,0,0.4,0,0.6v1.6
	c-0.3,0.3-0.7,0.6-1.1,0.7c-0.6,0.2-1.2,0.4-1.8,0.5c-0.5,0.1-1.1,0.1-1.6,0.1s-1-0.1-1.4-0.3c-0.5-0.3-1-0.6-1.5-1
	c-0.4-0.4-0.7-0.8-0.9-1.3c-0.3-0.5-0.4-1.1-0.5-1.7c-0.3-1.4-0.1-2.8,0.7-4c0.7-1.1,1.9-1.9,3.2-2.1c0.5-0.1,1.1-0.2,1.6-0.2
	C79.2,110,79.7,110.1,80.2,110.2z"/>
<path class="st1" d="M79.8,110.2c0.2-0.1,0.4-0.1,0.7-0.2c0.4-0.1,0.8-0.2,1.2-0.4l1.2-0.5c1-0.4,1.8-0.8,2.6-1.1l1.2-0.5
	c0.4-0.1,0.8-0.3,1.2-0.4c0.1,0.1,0.2,0.2,0.3,0.3l0.6,1.5l0.1,0.3v0.1l-0.3,0.1l-0.2,0.1l-0.3-0.4l-0.5-0.4
	c-0.2-0.2-0.4-0.4-0.7-0.5c-0.2,0-0.3,0.1-0.4,0.1l-0.4,0.1c-0.5,0.1-0.9,0.3-1.3,0.5c-0.5,0.2-1,0.4-1.4,0.6c0.2,0.5,0.3,1,0.6,1.4
	l0.5,1.2l0.4,0.9l0.3-0.1c0.8-0.3,1.3-0.6,1.7-0.7c0.2-0.1,0.4-0.2,0.6-0.4c0.1-0.1,0.1-0.3,0.1-0.4c0-0.4-0.1-0.8-0.2-1.2h0.1
	l0.4-0.2c0.2,0.4,0.3,0.8,0.4,1c0.2,0.5,0.3,0.8,0.4,1l0.1,0.3l0.3,0.6c0.1,0.3,0.2,0.5,0.3,0.6l0.1,0.2l-0.5,0.2l-0.3-0.4
	c-0.1-0.3-0.3-0.5-0.6-0.8c-0.1-0.1-0.2-0.1-0.3-0.1c-0.3,0.1-0.7,0.2-1,0.3c-0.5,0.2-1,0.4-1.5,0.7c0,0.1,0,0.2,0.1,0.2
	c0.2,0.6,0.4,1,0.6,1.4l0.6,1.6c0,0.2,0.2,0.3,0.3,0.3c0.6-0.1,1.2-0.2,1.7-0.5c0.5-0.2,1-0.4,1.5-0.8c0.3-0.2,0.5-0.5,0.6-0.8
	c0.2-0.5,0.2-1.1,0.2-1.7c0.1-0.1,0.2-0.1,0.3-0.2l0.2-0.1c0,0.1,0.1,0.2,0.1,0.3v0.2l0.3,1.5l0.2,0.9l-0.7,0.3
	c-0.2,0.1-0.9,0.3-2,0.7c-0.8,0.3-1.7,0.6-2.7,1c-0.5,0.2-1.2,0.5-1.9,0.8l-0.3,0.1l-0.8,0.3l-0.2-0.5c0.2-0.1,0.3-0.2,0.5-0.3
	c0.3-0.1,0.6-0.4,0.8-0.6c-0.1-0.3-0.2-0.7-0.3-1l-0.1-0.2l-1.1-2.7l-0.3-0.8l-0.5-1.2l-0.3-0.8l-0.4-0.9c0-0.1,0-0.1-0.1-0.1
	s-0.2,0-0.2,0h-0.2c-0.3,0-0.5,0.1-0.8,0.2c-0.1,0-0.2,0.1-0.3,0.1L79.8,110.2z"/>
<path class="st1" d="M92.8,115c0.1-0.2,0.3-0.3,0.4-0.4l0.4-0.3c0.2-0.1,0.2-0.2,0.2-0.3c0-0.1-0.1-0.2-0.1-0.3l-0.6-0.8l-0.5-0.9
	l-0.3-0.5l-0.4-0.7l-0.4-0.7l-0.9-1.5l-0.4-0.7l-0.1-0.1c-0.2-0.3-0.4-0.5-0.6-0.7c-0.1,0-0.3,0-0.4,0h-0.3l-0.3,0.1
	c-0.1,0-0.3,0-0.4,0l-0.2-0.2c0-0.1-0.1-0.1-0.1-0.2l0.1-0.1c0.1-0.1,0.4-0.3,1.1-0.6l0.8-0.6l0.6-0.4c0.3-0.2,0.6-0.4,1-0.7
	l0.2-0.2c0.1,0,0.1,0,0.2,0c0.1,0.1,0.2,0.1,0.2,0.2c0.1,0.1,0.1,0.2,0.1,0.3c-0.1,0.1-0.1,0.2-0.2,0.2l-0.6,0.7l-0.1,0.1v0.1
	l0.1,0.2l0.2,0.4l0.1,0.1v0.1c0,0,0.1,0.1,0.2,0.4l0.1,0.2l0.2,0.3c0.2,0.2,0.3,0.5,0.5,0.7l0.5,0.8l0.3,0.4l2,3.1
	c0.1,0.1,0.2,0.2,0.2,0.2l0.6-0.3l0.3-0.2l0.4-0.2c0.5-0.3,1-0.7,1.3-1.2c0.2-0.2,0.3-0.5,0.3-0.7c0.1-0.2,0.1-0.4,0.1-0.6
	c0-0.3-0.1-0.6-0.2-0.9l0.2-0.1l0.3-0.2l0.1,0.2c0.2,0.3,0.5,0.9,1,1.7c0.1,0.2,0.2,0.4,0.3,0.6l-0.2,0.1l-0.2,0.1l-0.3,0.2
	l-0.7,0.4l-1.2,0.7c-0.7,0.4-1.4,0.8-2,1.2l-1.2,0.8c-0.5,0.3-0.9,0.6-1.3,0.9h-0.1l-0.1,0.1l-0.1-0.1
	C92.9,115.2,92.9,115.1,92.8,115z"/>
<path class="st1" d="M100.3,110.2c0.1-0.2,0.2-0.4,0.4-0.5l0.3-0.4c0.1-0.1,0.2-0.2,0.2-0.3c-0.1-0.1-0.1-0.2-0.2-0.2l-0.7-0.7
	l-0.7-0.8l-0.4-0.5l-0.5-0.6l-0.6-0.6l-1.2-1.3l-0.5-0.6l-0.1-0.1c-0.2-0.2-0.4-0.4-0.7-0.6c-0.2,0-0.3,0.1-0.4,0.1l-0.3,0.1
	l-0.3,0.1c-0.1,0.1-0.2,0.1-0.4,0.1c-0.1-0.1-0.2-0.1-0.2-0.2l-0.1-0.1V103l0.9-0.8l0.7-0.7l0.6-0.5c0.2-0.2,0.5-0.5,0.9-0.9
	l0.2-0.2c0,0,0.1,0,0.2,0s0.2,0.1,0.2,0.2c0.1,0.1,0.1,0.2,0.1,0.2s0,0.1-0.2,0.3l-0.5,0.8v0.2l0.1,0.2l0.3,0.4l0.1,0.1v0.1l0.3,0.3
	l0.1,0.2c0.1,0.1,0.2,0.2,0.3,0.3c0.2,0.2,0.4,0.4,0.6,0.6l0.6,0.7c0.1,0.1,0.2,0.3,0.3,0.4l2.5,2.7c0.1,0.1,0.2,0.1,0.3,0.2
	l0.5-0.4l0.3-0.3l0.3-0.3c0.5-0.4,0.9-0.9,1.1-1.5c0.1-0.2,0.2-0.5,0.2-0.8c0-0.2,0-0.4-0.1-0.6c-0.1-0.3-0.2-0.6-0.4-0.9l0.2-0.2
	c0.1-0.1,0.2-0.2,0.3-0.2l0.1,0.2c0.3,0.3,0.7,0.8,1.2,1.5c0.2,0.2,0.3,0.4,0.4,0.6c0,0.1-0.1,0.1-0.1,0.2l-0.2,0.2l-0.3,0.2
	l-0.7,0.5l-1,0.9c-0.6,0.5-1.2,1-1.8,1.6l-1,1c-0.4,0.4-0.8,0.8-1.1,1.1l-0.1,0.1l-0.1,0.1l-0.1-0.1
	C100.5,110.4,100.4,110.3,100.3,110.2z"/>
<path class="st1" d="M99.4,98.3c0.2-0.2,0.3-0.3,0.5-0.5c0.3-0.3,0.6-0.6,0.8-1c0.1-0.1,0.3-0.5,0.7-1.1c0.6-0.9,1.1-1.6,1.6-2.3
	l0.8-1c0.3-0.3,0.5-0.7,0.8-1c0.2,0,0.3,0.1,0.4,0.2l1.3,1l0.3,0.2l0.1,0.1l-0.2,0.2l-0.2,0.2l-0.5-0.1l-0.6-0.1
	c-0.3-0.1-0.6-0.1-0.8-0.1c-0.1,0.1-0.2,0.2-0.3,0.3l-0.3,0.3c-0.3,0.3-0.6,0.7-0.9,1.1s-0.6,0.9-0.9,1.2c0.1,0.1,0.5,0.4,1.2,0.9
	l1.1,0.8l0.8,0.6c0.1-0.1,0.2-0.2,0.2-0.2c0.4-0.5,0.7-1,1-1.5c0.1-0.2,0.2-0.4,0.3-0.6c0-0.1-0.1-0.3-0.1-0.4
	c-0.1-0.1-0.3-0.4-0.8-0.9v-0.1l0.2-0.3c0.4,0.3,0.7,0.5,0.9,0.6l0.8,0.6l0.3,0.2l0.6,0.4l0.6,0.4l0.1,0.1l-0.3,0.4l-0.5-0.2
	c-0.3-0.1-0.6-0.3-0.9-0.3c-0.1,0-0.2,0-0.3,0.1c-0.2,0.2-0.5,0.5-0.7,0.8c-0.3,0.4-0.6,0.9-0.9,1.3l0.2,0.2
	c0.5,0.4,0.9,0.7,1.3,0.9l1.3,1c0.1,0.1,0.3,0.1,0.4,0.1c0.5-0.4,0.9-0.8,1.2-1.3c0.3-0.4,0.6-0.9,0.8-1.4c0.1-0.3,0.2-0.7,0.1-1
	c-0.1-0.6-0.4-1.1-0.7-1.5c0.1-0.1,0.1-0.2,0.2-0.3l0.1-0.2l0.2,0.2l0.2,0.2l1,1.1l0.6,0.6l-0.4,0.6l-1.3,1.6
	c-0.5,0.6-1.1,1.4-1.8,2.3c-0.3,0.5-0.7,1-1.2,1.7l-0.2,0.2l-0.5,0.7L107,104c0.1-0.2,0.1-0.3,0.2-0.5c0.2-0.3,0.3-0.6,0.4-1
	c-0.1-0.2-0.3-0.3-0.4-0.4l-0.4-0.3l-0.2-0.2l-2.3-1.7l-0.7-0.5l-1-0.7l-0.7-0.5l-0.8-0.5l-0.2-0.1c-0.1,0-0.2,0.1-0.2,0.1l-0.2,0.1
	c-0.2,0.2-0.4,0.4-0.6,0.6l-0.2,0.2L99.4,98.3z"/>
<path class="st1" d="M105.2,92.1l-0.5-0.2l0.2-0.6l0.1-0.2l0.2-0.5c0.1-0.2,0.1-0.3,0.2-0.4l0.1-0.1l0.2-0.4
	c0.1-0.2,0.1-0.4,0.2-0.4c0-0.1,0.1-0.1,0.1-0.2c1-0.4,1.8-0.7,2.4-0.9s3-1,7-2.4l-0.2-0.1l-0.8-0.3c-0.5-0.2-0.9-0.3-1.2-0.4
	c-0.3-0.1-0.7-0.2-1-0.4c-0.4-0.2-0.7-0.3-1.1-0.4l-1.1-0.4c-0.2-0.1-0.4-0.2-0.6-0.2c-0.2,0.1-0.4,0.3-0.5,0.5s-0.2,0.3-0.4,0.5
	l-0.4-0.2l0.1-0.2l0.5-1.3l0.6-1.4c0-0.1,0.1-0.2,0.1-0.3l0.5,0.2c0,0.1,0,0.2,0,0.4c0,0.2,0,0.4,0,0.6s0,0.3,0.1,0.5
	c0.1,0.1,0.1,0.1,0.2,0.2l0.3,0.1l0.6,0.3c0.7,0.3,1.2,0.5,1.7,0.7l0.4,0.2l2.6,1l0.4,0.2l0.9,0.4l0.4,0.2l0.4,0.2l0.4,0.1l0.4,0.2
	L118,87l-1.2,0.4l-2.4,0.8l-1.7,0.6l-1.3,0.4c-0.8,0.3-1.5,0.5-2.1,0.8l-1.5,0.6l2.7,1.1l0.5,0.2l0.5,0.2l1,0.4l1.3,0.5h0.2h0.2
	c0.3-0.3,0.5-0.6,0.6-1l0.1-0.1l0.6,0.2l-0.1,0.3c-0.1,0.1-0.3,0.6-0.7,1.3c-0.2,0.4-0.4,0.9-0.6,1.4l-0.1,0.4
	c0,0.1-0.1,0.1-0.1,0.2l-0.3-0.1l-0.2-0.1c0-0.1,0.1-0.2,0.1-0.3l0.1-0.2c0.1-0.2,0.2-0.4,0.2-0.7c0-0.1-0.2-0.2-0.4-0.3l-1.4-0.7
	l-0.4-0.2l-2.3-1l-1.5-0.6c-0.4-0.2-0.8-0.3-1.2-0.4c-0.1,0-0.2,0-0.3,0c-0.2,0.1-0.4,0.2-0.6,0.3C105.5,91.5,105.3,91.8,105.2,92.1
	z"/>
<path class="st1" d="M110.5,73.9c0.2,0,0.6,0,1.4-0.1c0.4,0,0.7,0,1.1,0.1l-0.1,0.6c-0.7,0.2-1.3,0.6-1.8,1.1
	c-0.4,0.4-0.6,0.9-0.8,1.5c-0.2,0.7,0.1,1.5,0.6,2c0.9,0.8,2.1,1.4,3.3,1.6c0.6,0.1,1.2,0.2,1.9,0.2c0.5,0,1.1-0.1,1.6-0.3
	c0.3-0.1,0.6-0.4,0.8-0.6c0.3-0.4,0.5-0.8,0.6-1.2c0.1-0.5,0-1.1-0.2-1.6c-0.3-0.6-0.8-1.2-1.3-1.7c0-0.2,0-0.5,0.1-0.7
	c0.2,0.1,0.4,0.1,0.6,0.2l0.9,0.3l0.2,0.1l0.3,0.2c0.2,0.4,0.3,0.8,0.3,1.3c0,0.6,0,1.3-0.2,1.9c-0.1,0.5-0.3,1.1-0.5,1.6
	c-0.2,0.4-0.5,0.9-0.8,1.2c-0.4,0.4-0.9,0.8-1.4,1s-1,0.4-1.5,0.4c-0.6,0-1.2,0-1.7-0.1c-1.4-0.2-2.7-0.9-3.5-2.1
	c-0.8-1.1-1.1-2.4-0.8-3.7c0.1-0.5,0.2-1.1,0.4-1.6C110.2,74.8,110.3,74.3,110.5,73.9z"/>
<path class="st1" d="M110.5,74.2c0-0.2,0-0.5,0.1-0.7c0.1-0.4,0.1-0.9,0.1-1.3c0-0.2,0-0.6-0.1-1.3c-0.1-1-0.1-2-0.1-2.8v-1.3
	c0-0.4,0-0.8,0.1-1.3c0.1-0.1,0.3-0.1,0.4-0.1h2.1V66l-0.5,0.2l-0.6,0.3c-0.2,0.1-0.5,0.3-0.7,0.5c0,0.1-0.1,0.3-0.1,0.4v1.8
	c0,0.5,0,1,0.1,1.5h3.8c0-0.1,0-0.2,0-0.3c0-0.6,0-1.2-0.1-1.8c0-0.2-0.1-0.5-0.2-0.7c-0.1-0.1-0.2-0.2-0.3-0.2
	c-0.4-0.1-0.8-0.2-1.2-0.2V67h4v0.5l-0.5,0.1c-0.3,0.1-0.6,0.1-0.9,0.3c-0.1,0.1-0.2,0.2-0.2,0.3c0,0.3,0,0.7,0,1
	c0,0.5,0,1.1,0.1,1.6h0.1c0.5,0,1,0,1.5-0.1h1.7c0.2,0,0.3-0.1,0.4-0.2c0.1-0.6,0.2-1.2,0.1-1.8c0-0.6-0.1-1.1-0.2-1.7
	c-0.1-0.3-0.3-0.6-0.5-0.8c-0.4-0.3-0.9-0.6-1.5-0.8c0-0.1,0-0.2,0-0.4v-0.2h0.6l1.5,0.2l0.9,0.1V71c0,0.6,0,1.2,0.1,2.1v1.2H120
	c0-0.2-0.1-0.4-0.1-0.5c0-0.3-0.1-0.7-0.3-1c-0.2-0.1-0.4-0.1-0.6-0.1h-0.7l-2.9,0.1h-3l-1,0.1h-0.2c-0.1,0.1-0.1,0.1-0.1,0.2v0.2
	c-0.1,0.3-0.1,0.5-0.1,0.8v0.3L110.5,74.2z"/>
<path class="st1" d="M27,55.2c0,1.4-1.1,2.5-2.5,2.5S22,56.6,22,55.2c0-1.4,1.1-2.5,2.5-2.5l0,0l0,0C25.9,52.7,27,53.9,27,55.2z"/>
<path class="st1" d="M114.4,55.2c0,1.4-1.1,2.5-2.5,2.5s-2.5-1.1-2.5-2.5s1.1-2.5,2.5-2.5C113.2,52.7,114.4,53.9,114.4,55.2z"/>
</svg>
